
<svg
					viewBox="0 0 117.48922 73.269998"
					version="1.1"
					id="svg19"
					width="50"
					height="25"
					xmlns="http://www.w3.org/2000/svg"
					xmlns:svg="http://www.w3.org/2000/svg"
				>
					<defs id="defs11">
						<style id="style9">
							.cls-1 {
								fill: #1b81a5;
							}
						</style>
					</defs>
					<g id="Layer_2" data-name="Layer 2" transform="translate(6.6843008e-4)">
						<g id="Layer_2-2" data-name="Layer 2">
							<path
								class="cls-1"
								d="m 108.06,73.27 a 4.7,4.7 0 0 1 -3.42,-1.91 2.87,2.87 0 0 1 -0.14,-2.21 3,3 0 0 1 1.65,-1.78 c 3.65,-2 5.42,-5.22 4.88,-9 -0.54,-3.78 -3.61,-8.14 -9.31,-10 A 18,18 0 0 0 99.63,48 c -0.85,-0.13 -1.57,-0.22 -2.17,-0.29 a 11.38,11.38 0 0 1 -2.6,-0.48 2.2,2.2 0 0 1 -1.6,-1 c -0.47,-0.84 -0.16,-1.74 0.39,-3.39 0.3,-0.91 0.71,-2.14 1.14,-3.76 2.26,-8.65 1.22,-16.37 -3,-22.32 C 88.2,11.79 82.41,8 75,5.94 A 53.2,53.2 0 0 0 61.41,4.27 c -1.17,0 -2.37,0 -3.56,0.1 -10,0.55 -16,3.21 -20.8,9.17 a 0.75,0.75 0 0 1 -0.5,0.28 42.28,42.28 0 0 1 -5.07,0.27 c -1.87,0 -3.78,-0.08 -5.63,-0.16 -1.15,0 -2.28,-0.1 -3.4,-0.13 A 0.68,0.68 0 0 1 21.98,13.61 H 21.79 A 0.83,0.83 0 0 1 21,12.8 v -0.31 a 0.83,0.83 0 0 1 0.66,-0.9 69.15,69.15 0 0 1 9.62,-0.81 24.08,24.08 0 0 1 3,0.17 C 40,3.58 48.72,0 61.09,0 c 1,0 2,0 3.06,0.07 11.9,0.54 21.19,3.67 27.61,9.3 9,7.44 11.89,19.22 8.16,33.22 a 21.22,21.22 0 0 1 10.7,4.24 16.53,16.53 0 0 1 4.95,6 15.05,15.05 0 0 1 1.47,11 15.22,15.22 0 0 1 -7.77,9.17 h -0.08 a 2.93,2.93 0 0 1 -1.13,0.23 z m -23.9,-8.15 0.49,-0.08 a 2.82,2.82 0 0 0 0.57,-0.15 h 0.22 A 3.75,3.75 0 0 0 88.2,62.36 C 89.75,58.75 89.07,51.9 87.44,48.82 85.69,45.5 81.15,44.09 77.68,43.5 A 32.85,32.85 0 0 0 71.1,42.85 H 69.96 C 69.88,35.71 64.64,27.9 59.5,24.85 a 22.32,22.32 0 0 0 -7.37,-2.58 36.23,36.23 0 0 0 -7.41,-0.73 c -8.37,0 -20.21,2.7 -26.09,10.34 a 3.39,3.39 0 0 0 -0.63,2.35 2.78,2.78 0 0 0 0.93,1.85 2.28,2.28 0 0 0 1.53,0.58 2.5,2.5 0 0 0 0.85,-0.15 2.68,2.68 0 0 0 2.09,-1.12 c 2.69,-3.63 8.29,-6.49 15.36,-7.85 a 43,43 0 0 1 7.16,-0.63 24.16,24.16 0 0 1 7.72,1.09 c 7,2.46 11.15,8.49 11.58,17 A 2.71,2.71 0 0 0 66,46.86 2.79,2.79 0 0 0 68,47.5 14.14,14.14 0 0 0 69.84,47.33 17.63,17.63 0 0 1 72,47.14 h 0.46 c 5.15,0.27 9.27,0.7 11.48,3.42 1.36,1.67 1.94,4.18 1.76,7.68 -0.12,2.32 -0.44,3.73 -1.81,5 l -0.37,0.36 a 0.92,0.92 0 0 0 -0.21,1 0.78,0.78 0 0 0 0.71,0.5 z m -47.93,6 A 2.94,2.94 0 0 0 38.7,67.92 2.82,2.82 0 0 0 36,65.19 h -0.2 c -4.21,0.43 -8.7,0.7 -13,1 C 16,66.59 8.9,67 2.55,68 l -1,0.15 a 0.88,0.88 0 0 0 0,1.7 l 1,0.16 a 127.91,127.91 0 0 0 20.36,1.41 c 4.62,0.04 9.09,-0.11 13.32,-0.28 z m 0.18,-10.75 a 3,3 0 0 0 0,-5.94 l -3.06,0.1 C 23.11,54.88 11.51,55.27 1.98,56.84 L 1,57 a 0.88,0.88 0 0 0 0,1.7 l 1,0.15 c 8.09,1.25 17.25,1.33 26.12,1.41 2.89,0 5.63,0 8.32,0.11 z m 2.1,-10.83 h 0.05 A 2.67,2.67 0 0 0 40.24,48.23 3.22,3.22 0 0 0 40.6,46 2.77,2.77 0 0 0 38,43.7 a 2.17,2.17 0 0 0 -0.54,0.06 127.07,127.07 0 0 1 -18,1.4 131.85,131.85 0 0 0 -17.92,1.36 L 0.66,46.67 A 0.83,0.83 0 0 0 0,47.51 0.85,0.85 0 0 0 0.65,48.37 l 0.89,0.15 A 160.4,160.4 0 0 0 26,50.15 106.92,106.92 0 0 0 38.51,49.56 Z"
								id="path15"
							/>
						</g>
					</g>
                    </svg>
